# xmcd
#
# Track frame offsets: 
#        150
#        13765
#        27628
#        40893
#        54193
#        66833
#        81612
#        101919
#        112914
#        124306
#        136730
#        152950
#
# Disc length: 2187 seconds
#
# Revision: 1
# Processed by: cddbd v1.5.2PL0 Copyright (c) Steve Scherf et al.
# Submitted via: ExactAudioCopy v0.99pb4
#
DISCID=a608890c
DTITLE=King, B.B. - GoldenLegends B.B. King Live
DYEAR=2005
DGENRE=Blues
TTITLE0=Three O' Clock Blues
TTITLE1=You Know I Love You
TTITLE2=Woke Up This Morning
TTITLE3=Story From My Heart and Soul
TTITLE4=Please Love Me
TTITLE5=B.B. Boogie
TTITLE6=Please Hurry Home
TTITLE7=When Your Baby Packs Up And Goes
TTITLE8=You Didn't Want Me
TTITLE9=Mistreated Woman
TTITLE10=The Other Night Blues
TTITLE11=B.B. Blues
EXTD=
EXTT0=
EXTT1=
EXTT2=
EXTT3=
EXTT4=
EXTT5=
EXTT6=
EXTT7=
EXTT8=
EXTT9=
EXTT10=
EXTT11=
PLAYORDER=
